# xmcd
#
# Track frame offsets: 
#        150
#        10259
#        29129
#        42238
#        59180
#        69631
#        85640
#        102736
#        116781
#        130628
#        148148
#        165049
#        184796
#
# Disc length: 2652 seconds
#
# Revision: 0
# Processed by: cddbd v1.5.2PL0 Copyright (c) Steve Scherf et al.
# Submitted via: ExactAudioCopy v0.99pb4
#
DISCID=ba0a5a0d
DTITLE=Victor Camozzi - 3 Peso Cigar
DYEAR=2008
DGENRE=Outlaw Country
TTITLE0=Drunken Breeze
TTITLE1=Normal People
TTITLE2=California Time
TTITLE3=Don Juan De Suburbia
TTITLE4=Stupid Tonight
TTITLE5=Doug Saldana
TTITLE6=Fistful Of Nails
TTITLE7=Pretty Sunshine
TTITLE8=I'm Gold
TTITLE9=Light It Up
TTITLE10=Down in the Valley
TTITLE11=Goodnight Shino
TTITLE12=Peso Cigar
EXTD=
EXTT0=
EXTT1=
EXTT2=
EXTT3=
EXTT4=
EXTT5=
EXTT6=
EXTT7=
EXTT8=
EXTT9=
EXTT10=
EXTT11=
EXTT12=
PLAYORDER=
